<?xml version="1.0" encoding="UTF-8" standalone="no"?>
<!-- Created with Inkscape (http://www.inkscape.org/) -->

<svg
   xmlns:dc="http://purl.org/dc/elements/1.1/"
   xmlns:cc="http://creativecommons.org/ns#"
   xmlns:rdf="http://www.w3.org/1999/02/22-rdf-syntax-ns#"
   xmlns:svg="http://www.w3.org/2000/svg"
   xmlns="http://www.w3.org/2000/svg"
   xmlns:sodipodi="http://sodipodi.sourceforge.net/DTD/sodipodi-0.dtd"
   xmlns:inkscape="http://www.inkscape.org/namespaces/inkscape"
   width="436.58374"
   height="135.72626"
   id="svg2"
   version="1.1"
   inkscape:version="0.47 r22583"
   sodipodi:docname="New document 1">
  <defs
     id="defs4">
    <inkscape:perspective
       sodipodi:type="inkscape:persp3d"
       inkscape:vp_x="0 : 526.18109 : 1"
       inkscape:vp_y="0 : 1000 : 0"
       inkscape:vp_z="744.09448 : 526.18109 : 1"
       inkscape:persp3d-origin="372.04724 : 350.78739 : 1"
       id="perspective10" />
    <clipPath
       id="clipPath2855"
       clipPathUnits="userSpaceOnUse">
      <path
         id="path2857"
         d="M 0,1085.81 0,0 l 3492.67,0 0,1085.81" />
    </clipPath>
    <inkscape:perspective
       id="perspective2845"
       inkscape:persp3d-origin="0.5 : 0.33333333 : 1"
       inkscape:vp_z="1 : 0.5 : 1"
       inkscape:vp_y="0 : 1000 : 0"
       inkscape:vp_x="0 : 0.5 : 1"
       sodipodi:type="inkscape:persp3d" />
  </defs>
  <sodipodi:namedview
     id="base"
     pagecolor="#ffffff"
     bordercolor="#666666"
     borderopacity="1.0"
     inkscape:pageopacity="0.0"
     inkscape:pageshadow="2"
     inkscape:zoom="0.35"
     inkscape:cx="218.29187"
     inkscape:cy="67.863122"
     inkscape:document-units="px"
     inkscape:current-layer="layer1"
     showgrid="false"
     inkscape:window-width="615"
     inkscape:window-height="499"
     inkscape:window-x="0"
     inkscape:window-y="25"
     inkscape:window-maximized="0" />
  <metadata
     id="metadata7">
    <rdf:RDF>
      <cc:Work
         rdf:about="">
        <dc:format>image/svg+xml</dc:format>
        <dc:type
           rdf:resource="http://purl.org/dc/dcmitype/StillImage" />
        <dc:title></dc:title>
      </cc:Work>
    </rdf:RDF>
  </metadata>
  <g
     inkscape:label="Layer 1"
     inkscape:groupmode="layer"
     id="layer1"
     transform="translate(-156.70813,-470.21334)">
    <g
       transform="matrix(1.25,0,0,-1.25,156.70813,605.93959)"
       inkscape:label="ink_ext_XXXXXX"
       id="g2847">
      <g
         transform="scale(0.1,0.1)"
         id="g2849">
        <g
           id="g2851">
          <g
             clip-path="url(#clipPath2855)"
             id="g2853">
            <path
               id="path2859"
               style="fill:none;stroke:#c4122e;stroke-width:8.51399994;stroke-linecap:butt;stroke-linejoin:miter;stroke-miterlimit:4;stroke-opacity:1;stroke-dasharray:none"
               d="m 543.027,311.582 0,-119.57" />
            <path
               id="path2861"
               style="fill:none;stroke:#c4122e;stroke-width:8.51399994;stroke-linecap:butt;stroke-linejoin:miter;stroke-miterlimit:4;stroke-opacity:1;stroke-dasharray:none"
               d="m 543.027,531.543 c 0,0 0.852,6.504 12.852,9.336 0,0 11.742,2.441 24.887,0.996 19.168,-1.742 34.511,-3.965 47.164,-4.258 16.968,-0.371 28.047,-0.137 36.203,-0.273 l 0.039,-196.836 c 0,0 -12.473,-0.656 -28.457,-0.305 -32.617,0.735 -44.918,4.141 -70.563,4.074 -15.254,-0.039 -16.547,-12.265 -22.336,-12.265 -5.754,0 -6.375,12.226 -21.398,12.265 -25.641,0.067 -37.926,-3.339 -70.566,-4.074 -15.969,-0.351 -28.438,0.305 -28.438,0.305 l 0.039,196.836 c 8.172,0.136 19.25,-0.098 36.215,0.273 12.621,0.293 27.996,2.516 47.187,4.258 13.067,1.445 24.833,-0.996 24.833,-0.996 12,-2.832 12.855,-9.336 12.855,-9.336" />
            <path
               id="path2863"
               style="fill:none;stroke:#c4122e;stroke-width:3.19199991;stroke-linecap:butt;stroke-linejoin:miter;stroke-miterlimit:4;stroke-opacity:1;stroke-dasharray:none"
               d="m 441.504,514.676 c 0,0 18.363,0.48 22.894,0.773 3.215,0.203 33.297,3.125 37.106,3.446 11.34,1.437 21.898,0.226 21.898,0.226 l 0,-5.207 c 0,0 -9.09,1.113 -35.398,-1.758 0,0 -18.383,-1.824 -27.68,-2.215 -5.582,-0.273 -18.847,-0.566 -18.847,-0.566 l 0.027,5.301 z" />
            <path
               id="path2865"
               style="fill:none;stroke:#c4122e;stroke-width:3.19199991;stroke-linecap:butt;stroke-linejoin:miter;stroke-miterlimit:4;stroke-opacity:1;stroke-dasharray:none"
               d="m 442.672,512.012 c 0,0 22.461,0.39 33.648,1.875 11.176,1.445 22.352,1.992 28.887,2.793 3.547,0.429 4.656,0.215 17.266,-0.43" />
            <path
               id="path2867"
               style="fill:none;stroke:#c4122e;stroke-width:3.19199991;stroke-linecap:butt;stroke-linejoin:miter;stroke-miterlimit:4;stroke-opacity:1;stroke-dasharray:none"
               d="m 441.504,498.867 c 0,0 18.363,0.508 22.894,0.781 3.215,0.204 33.297,3.086 37.106,3.418 11.34,1.446 21.898,0.235 21.898,0.235 l 0,-5.207 c 0,0 -9.09,1.133 -35.398,-1.746 0,0 -18.383,-1.817 -27.68,-2.227 -5.582,-0.254 -18.847,-0.547 -18.847,-0.547 l 0.027,5.293 z" />
            <path
               id="path2869"
               style="fill:none;stroke:#c4122e;stroke-width:3.19199991;stroke-linecap:butt;stroke-linejoin:miter;stroke-miterlimit:4;stroke-opacity:1;stroke-dasharray:none"
               d="m 442.672,496.211 c 0,0 22.461,0.43 33.648,1.875 11.176,1.445 22.352,2 28.887,2.773 3.547,0.45 4.656,0.235 17.266,-0.41" />
            <path
               id="path2871"
               style="fill:none;stroke:#c4122e;stroke-width:3.19199991;stroke-linecap:butt;stroke-linejoin:miter;stroke-miterlimit:4;stroke-opacity:1;stroke-dasharray:none"
               d="m 441.504,471.172 c 0,0 18.363,0.469 22.894,0.781 3.215,0.195 33.297,3.067 37.106,3.399 11.34,1.464 21.898,0.234 21.898,0.234 l 0,-5.215 c 0,0 -9.09,1.152 -35.398,-1.75 0,0 -18.383,-1.816 -27.68,-2.234 -5.582,-0.215 -18.847,-0.528 -18.847,-0.528 l 0.027,5.313 z" />
            <path
               id="path2873"
               style="fill:none;stroke:#c4122e;stroke-width:3.19199991;stroke-linecap:butt;stroke-linejoin:miter;stroke-miterlimit:4;stroke-opacity:1;stroke-dasharray:none"
               d="m 442.672,468.516 c 0,0 22.461,0.39 33.648,1.816 11.176,1.484 22.352,2.012 28.887,2.813 3.547,0.468 4.656,0.253 17.266,-0.422" />
            <path
               id="path2875"
               style="fill:none;stroke:#c4122e;stroke-width:3.19199991;stroke-linecap:butt;stroke-linejoin:miter;stroke-miterlimit:4;stroke-opacity:1;stroke-dasharray:none"
               d="m 441.504,455.359 c 0,0 18.363,0.481 22.894,0.735 3.215,0.242 33.297,3.144 37.106,3.437 11.34,1.485 21.898,0.254 21.898,0.254 l 0,-5.187 c 0,0 -9.09,1.113 -35.398,-1.797 0,0 -18.383,-1.817 -27.68,-2.215 -5.582,-0.227 -18.847,-0.527 -18.847,-0.527 l 0.027,5.3 z" />
            <path
               id="path2877"
               style="fill:none;stroke:#c4122e;stroke-width:3.19199991;stroke-linecap:butt;stroke-linejoin:miter;stroke-miterlimit:4;stroke-opacity:1;stroke-dasharray:none"
               d="m 442.672,452.684 c 0,0 22.461,0.402 33.648,1.847 11.176,1.485 22.352,2.012 28.887,2.793 3.547,0.438 4.656,0.254 17.266,-0.39" />
            <path
               id="path2879"
               style="fill:none;stroke:#c4122e;stroke-width:3.19199991;stroke-linecap:butt;stroke-linejoin:miter;stroke-miterlimit:4;stroke-opacity:1;stroke-dasharray:none"
               d="m 441.504,427.715 c 0,0 18.363,0.469 22.894,0.769 3.215,0.188 33.297,3.086 37.106,3.391 11.34,1.484 21.898,0.262 21.898,0.262 l 0,-5.196 c 0,0 -9.09,1.125 -35.398,-1.777 0,0 -18.383,-1.805 -27.68,-2.215 -5.582,-0.254 -18.847,-0.547 -18.847,-0.547 l 0.027,5.313 z" />
            <path
               id="path2881"
               style="fill:none;stroke:#c4122e;stroke-width:3.19199991;stroke-linecap:butt;stroke-linejoin:miter;stroke-miterlimit:4;stroke-opacity:1;stroke-dasharray:none"
               d="m 442.672,425.039 c 0,0 22.461,0.371 33.648,1.875 11.176,1.453 22.352,1.992 28.887,2.762 3.547,0.441 4.656,0.254 17.266,-0.399" />
            <path
               id="path2883"
               style="fill:none;stroke:#c4122e;stroke-width:3.19199991;stroke-linecap:butt;stroke-linejoin:miter;stroke-miterlimit:4;stroke-opacity:1;stroke-dasharray:none"
               d="m 441.504,411.719 c 0,0 18.363,0.469 22.894,0.761 3.215,0.215 33.297,3.094 37.106,3.438 11.34,1.445 21.898,0.215 21.898,0.215 l 0,-5.188 c 0,0 -9.09,1.145 -35.398,-1.777 0,0 -18.383,-1.805 -27.68,-2.207 -5.582,-0.234 -18.847,-0.535 -18.847,-0.535 l 0.027,5.293 z" />
            <path
               id="path2885"
               style="fill:none;stroke:#c4122e;stroke-width:3.19199991;stroke-linecap:butt;stroke-linejoin:miter;stroke-miterlimit:4;stroke-opacity:1;stroke-dasharray:none"
               d="m 442.672,409.07 c 0,0 22.461,0.364 33.648,1.828 11.176,1.485 22.352,2.012 28.887,2.801 3.547,0.442 4.656,0.246 17.266,-0.437" />
            <path
               id="path2887"
               style="fill:none;stroke:#c4122e;stroke-width:3.19199991;stroke-linecap:butt;stroke-linejoin:miter;stroke-miterlimit:4;stroke-opacity:1;stroke-dasharray:none"
               d="m 441.504,383.945 c 0,0 18.363,0.516 22.894,0.782 3.215,0.203 33.297,3.105 37.106,3.437 11.34,1.445 21.898,0.215 21.898,0.215 l 0,-5.176 c 0,0 -9.09,1.113 -35.398,-1.816 0,0 -18.383,-1.758 -27.68,-2.199 -5.582,-0.235 -18.847,-0.536 -18.847,-0.536 l 0.027,5.293 z" />
            <path
               id="path2889"
               style="fill:none;stroke:#c4122e;stroke-width:3.19199991;stroke-linecap:butt;stroke-linejoin:miter;stroke-miterlimit:4;stroke-opacity:1;stroke-dasharray:none"
               d="m 442.672,381.309 c 0,0 22.461,0.379 33.648,1.836 11.176,1.464 22.352,2.011 28.887,2.793 3.547,0.449 4.656,0.253 17.266,-0.43" />
            <path
               id="path2891"
               style="fill:none;stroke:#c4122e;stroke-width:3.19199991;stroke-linecap:butt;stroke-linejoin:miter;stroke-miterlimit:4;stroke-opacity:1;stroke-dasharray:none"
               d="m 441.504,368.145 c 0,0 18.363,0.515 22.894,0.769 3.215,0.207 33.297,3.137 37.106,3.418 11.34,1.457 21.898,0.254 21.898,0.254 l 0,-5.203 c 0,0 -9.09,1.121 -35.398,-1.789 0,0 -18.383,-1.778 -27.68,-2.196 -5.582,-0.234 -18.847,-0.539 -18.847,-0.539 l 0.027,5.286 z" />
            <path
               id="path2893"
               style="fill:none;stroke:#c4122e;stroke-width:3.19199991;stroke-linecap:butt;stroke-linejoin:miter;stroke-miterlimit:4;stroke-opacity:1;stroke-dasharray:none"
               d="m 442.672,365.488 c 0,0 22.461,0.391 33.648,1.875 11.176,1.446 22.352,2.012 28.887,2.774 3.547,0.449 4.656,0.254 17.266,-0.403" />
            <path
               id="path2895"
               style="fill:none;stroke:#c4122e;stroke-width:3.19199991;stroke-linecap:butt;stroke-linejoin:miter;stroke-miterlimit:4;stroke-opacity:1;stroke-dasharray:none"
               d="m 644.531,514.676 c 0,0 -18.367,0.48 -22.886,0.773 -3.176,0.203 -33.293,3.125 -37.137,3.446 -11.301,1.437 -21.922,0.226 -21.922,0.226 l 0,-5.207 c 0,0 9.152,1.113 35.441,-1.758 0,0 18.403,-1.824 27.696,-2.215 5.586,-0.273 18.851,-0.566 18.851,-0.566 l -0.043,5.301 z" />
            <path
               id="path2897"
               style="fill:none;stroke:#c4122e;stroke-width:3.19199991;stroke-linecap:butt;stroke-linejoin:miter;stroke-miterlimit:4;stroke-opacity:1;stroke-dasharray:none"
               d="m 643.363,512.012 c 0,0 -22.465,0.39 -33.652,1.875 -11.176,1.445 -22.324,1.992 -28.867,2.793 -3.551,0.429 -4.656,0.215 -17.297,-0.43" />
            <path
               id="path2899"
               style="fill:none;stroke:#c4122e;stroke-width:3.19199991;stroke-linecap:butt;stroke-linejoin:miter;stroke-miterlimit:4;stroke-opacity:1;stroke-dasharray:none"
               d="m 644.531,498.867 c 0,0 -18.367,0.508 -22.886,0.781 -3.176,0.204 -33.293,3.086 -37.137,3.418 -11.301,1.446 -21.922,0.235 -21.922,0.235 l 0,-5.207 c 0,0 9.152,1.133 35.441,-1.746 0,0 18.403,-1.817 27.696,-2.227 5.586,-0.254 18.851,-0.547 18.851,-0.547 l -0.043,5.293 z" />
            <path
               id="path2901"
               style="fill:none;stroke:#c4122e;stroke-width:3.19199991;stroke-linecap:butt;stroke-linejoin:miter;stroke-miterlimit:4;stroke-opacity:1;stroke-dasharray:none"
               d="m 643.363,496.211 c 0,0 -22.465,0.43 -33.652,1.875 -11.176,1.445 -22.324,2 -28.867,2.773 -3.551,0.45 -4.656,0.235 -17.297,-0.41" />
            <path
               id="path2903"
               style="fill:none;stroke:#c4122e;stroke-width:3.19199991;stroke-linecap:butt;stroke-linejoin:miter;stroke-miterlimit:4;stroke-opacity:1;stroke-dasharray:none"
               d="m 644.531,471.172 c 0,0 -18.367,0.469 -22.886,0.781 -3.176,0.195 -33.293,3.067 -37.137,3.399 -11.301,1.464 -21.922,0.234 -21.922,0.234 l 0,-5.215 c 0,0 9.152,1.152 35.441,-1.75 0,0 18.403,-1.816 27.696,-2.234 5.586,-0.215 18.851,-0.528 18.851,-0.528 l -0.043,5.313 z" />
            <path
               id="path2905"
               style="fill:none;stroke:#c4122e;stroke-width:3.19199991;stroke-linecap:butt;stroke-linejoin:miter;stroke-miterlimit:4;stroke-opacity:1;stroke-dasharray:none"
               d="m 643.363,468.516 c 0,0 -22.465,0.39 -33.652,1.816 -11.176,1.484 -22.324,2.012 -28.867,2.813 -3.551,0.468 -4.656,0.253 -17.297,-0.422" />
            <path
               id="path2907"
               style="fill:none;stroke:#c4122e;stroke-width:3.19199991;stroke-linecap:butt;stroke-linejoin:miter;stroke-miterlimit:4;stroke-opacity:1;stroke-dasharray:none"
               d="m 644.531,455.359 c 0,0 -18.367,0.481 -22.886,0.735 -3.176,0.242 -33.293,3.144 -37.137,3.437 -11.301,1.485 -21.922,0.254 -21.922,0.254 l 0,-5.187 c 0,0 9.152,1.113 35.441,-1.797 0,0 18.403,-1.817 27.696,-2.215 5.586,-0.227 18.851,-0.527 18.851,-0.527 l -0.043,5.3 z" />
            <path
               id="path2909"
               style="fill:none;stroke:#c4122e;stroke-width:3.19199991;stroke-linecap:butt;stroke-linejoin:miter;stroke-miterlimit:4;stroke-opacity:1;stroke-dasharray:none"
               d="m 643.363,452.684 c 0,0 -22.465,0.402 -33.652,1.847 -11.176,1.485 -22.324,2.012 -28.867,2.793 -3.551,0.438 -4.656,0.254 -17.297,-0.39" />
            <path
               id="path2911"
               style="fill:none;stroke:#c4122e;stroke-width:3.19199991;stroke-linecap:butt;stroke-linejoin:miter;stroke-miterlimit:4;stroke-opacity:1;stroke-dasharray:none"
               d="m 644.531,427.715 c 0,0 -18.367,0.469 -22.886,0.769 -3.176,0.188 -33.293,3.086 -37.137,3.391 -11.301,1.484 -21.922,0.262 -21.922,0.262 l 0,-5.196 c 0,0 9.152,1.125 35.441,-1.777 0,0 18.403,-1.805 27.696,-2.215 5.586,-0.254 18.851,-0.547 18.851,-0.547 l -0.043,5.313 z" />
            <path
               id="path2913"
               style="fill:none;stroke:#c4122e;stroke-width:3.19199991;stroke-linecap:butt;stroke-linejoin:miter;stroke-miterlimit:4;stroke-opacity:1;stroke-dasharray:none"
               d="m 643.363,425.039 c 0,0 -22.465,0.371 -33.652,1.875 -11.176,1.453 -22.324,1.992 -28.867,2.762 -3.551,0.441 -4.656,0.254 -17.297,-0.399" />
            <path
               id="path2915"
               style="fill:none;stroke:#c4122e;stroke-width:3.19199991;stroke-linecap:butt;stroke-linejoin:miter;stroke-miterlimit:4;stroke-opacity:1;stroke-dasharray:none"
               d="m 644.531,411.875 c 0,0 -18.367,0.508 -22.886,0.801 -3.176,0.183 -33.293,3.094 -37.137,3.398 -11.301,1.473 -21.922,0.274 -21.922,0.274 l 0,-5.235 c 0,0 9.152,1.133 35.441,-1.769 0,0 18.403,-1.785 27.696,-2.207 5.586,-0.242 18.851,-0.575 18.851,-0.575 l -0.043,5.313 z" />
            <path
               id="path2917"
               style="fill:none;stroke:#c4122e;stroke-width:3.19199991;stroke-linecap:butt;stroke-linejoin:miter;stroke-miterlimit:4;stroke-opacity:1;stroke-dasharray:none"
               d="m 643.363,409.238 c 0,0 -22.465,0.391 -33.652,1.856 -11.176,1.465 -22.324,1.972 -28.867,2.793 -3.551,0.429 -4.656,0.254 -17.297,-0.43" />
            <path
               id="path2919"
               style="fill:none;stroke:#c4122e;stroke-width:3.19199991;stroke-linecap:butt;stroke-linejoin:miter;stroke-miterlimit:4;stroke-opacity:1;stroke-dasharray:none"
               d="m 644.531,383.945 c 0,0 -18.367,0.516 -22.886,0.782 -3.176,0.203 -33.293,3.105 -37.137,3.437 -11.301,1.445 -21.922,0.215 -21.922,0.215 l 0,-5.176 c 0,0 9.152,1.113 35.441,-1.816 0,0 18.403,-1.758 27.696,-2.199 5.586,-0.235 18.851,-0.536 18.851,-0.536 l -0.043,5.293 z" />
            <path
               id="path2921"
               style="fill:none;stroke:#c4122e;stroke-width:3.19199991;stroke-linecap:butt;stroke-linejoin:miter;stroke-miterlimit:4;stroke-opacity:1;stroke-dasharray:none"
               d="m 643.363,381.309 c 0,0 -22.465,0.379 -33.652,1.836 -11.176,1.464 -22.324,2.011 -28.867,2.793 -3.551,0.449 -4.656,0.253 -17.297,-0.43" />
            <path
               id="path2923"
               style="fill:none;stroke:#c4122e;stroke-width:3.19199991;stroke-linecap:butt;stroke-linejoin:miter;stroke-miterlimit:4;stroke-opacity:1;stroke-dasharray:none"
               d="m 644.531,368.145 c 0,0 -18.367,0.515 -22.886,0.769 -3.176,0.207 -33.293,3.137 -37.137,3.418 -11.301,1.457 -21.922,0.254 -21.922,0.254 l 0,-5.203 c 0,0 9.152,1.121 35.441,-1.789 0,0 18.403,-1.778 27.696,-2.196 5.586,-0.234 18.851,-0.539 18.851,-0.539 l -0.043,5.286 z" />
            <path
               id="path2925"
               style="fill:none;stroke:#c4122e;stroke-width:3.19199991;stroke-linecap:butt;stroke-linejoin:miter;stroke-miterlimit:4;stroke-opacity:1;stroke-dasharray:none"
               d="m 643.363,365.488 c 0,0 -22.465,0.391 -33.652,1.875 -11.176,1.446 -22.324,2.012 -28.867,2.774 -3.551,0.449 -4.656,0.254 -17.297,-0.403" />
            <path
               id="path2927"
               style="fill:none;stroke:#c4122e;stroke-width:12.77099991;stroke-linecap:butt;stroke-linejoin:miter;stroke-miterlimit:4;stroke-opacity:1;stroke-dasharray:none"
               d="m 929.352,542.914 c 0,-213.453 -173.04,-386.488 -386.497,-386.488 -213.437,0 -386.472,173.035 -386.472,386.488 0,213.441 173.035,386.508 386.472,386.508 213.457,0 386.497,-173.067 386.497,-386.508 z" />
            <path
               id="path2929"
               style="fill:none;stroke:#c4122e;stroke-width:5.32200003;stroke-linecap:butt;stroke-linejoin:miter;stroke-miterlimit:4;stroke-opacity:1;stroke-dasharray:none"
               d="m 948.207,542.914 c 0,-223.871 -181.496,-405.355 -405.352,-405.355 -223.796,0 -405.316,181.484 -405.316,405.339 0,223.868 181.52,405.368 405.316,405.368 223.856,0 405.352,-181.5 405.352,-405.352 z" />
            <path
               id="path2931"
               style="fill:none;stroke:#c4122e;stroke-width:5.32200003;stroke-linecap:butt;stroke-linejoin:miter;stroke-miterlimit:4;stroke-opacity:1;stroke-dasharray:none"
               d="M 1083.09,542.898 C 1083.09,244.539 841.234,2.66016 542.855,2.66016 244.512,2.66016 2.66016,244.539 2.66016,542.898 c 0,298.368 241.85184,540.252 540.19484,540.252 298.379,0 540.235,-241.884 540.235,-540.252 z" />
            <path
               id="path2933"
               style="fill:none;stroke:#c4122e;stroke-width:12.77099991;stroke-linecap:butt;stroke-linejoin:miter;stroke-miterlimit:4;stroke-opacity:1;stroke-dasharray:none"
               d="m 1065.54,542.898 c 0,-288.64 -234.032,-522.6675 -522.685,-522.6675 -288.617,0 -522.6441,234.0275 -522.6441,522.6675 0,288.672 234.0271,522.652 522.6441,522.652 288.653,0 522.685,-233.98 522.685,-522.652 z" />
            <path
               id="path2935"
               style="fill:none;stroke:#c4122e;stroke-width:12.77099991;stroke-linecap:butt;stroke-linejoin:miter;stroke-miterlimit:4;stroke-opacity:1;stroke-dasharray:none"
               d="m 308.629,590.938 468.691,0" />
            <path
               id="path2937"
               style="fill:none;stroke:#c4122e;stroke-width:12.77099991;stroke-linecap:butt;stroke-linejoin:miter;stroke-miterlimit:4;stroke-opacity:1;stroke-dasharray:none"
               d="m 795.137,464.199 c 0,57.332 -0.02,349.961 -0.02,349.961 l -504.89,-0.015 c 0,0 -0.016,-286.352 -0.016,-343.696 0,-192.199 252.75,-300.656 252.75,-300.656 0,0 252.176,110.332 252.176,294.406 z" />
            <path
               id="path2939"
               style="fill:none;stroke:#c4122e;stroke-width:5.32200003;stroke-linecap:butt;stroke-linejoin:miter;stroke-miterlimit:4;stroke-opacity:1;stroke-dasharray:none"
               d="m 777.184,466.961 c 0,53.762 -0.032,328.309 -0.032,328.309 l -469.765,-0.016 c 0,0 0,-268.664 0,-322.442 0,-180.351 235.574,-283 235.574,-283 0,0 234.223,104.446 234.223,277.149 z" />
            <path
               id="path2941"
               style="fill:none;stroke:#c4122e;stroke-width:8.51399994;stroke-linecap:butt;stroke-linejoin:miter;stroke-miterlimit:4;stroke-opacity:1;stroke-dasharray:none"
               d="m 430.406,609.559 c 0,0 -33.129,19.355 -54.758,33.863 -21.628,14.488 -21.757,25.508 -21.996,28.332 -0.199,2.82 -0.078,107.664 -0.078,107.664 l 154.653,0 c 0,0 0.195,-104.844 0,-107.664 -0.235,-2.824 1.07,-13.844 -20.555,-28.332 -21.637,-14.508 -57.266,-33.863 -57.266,-33.863 z" />
            <path
               id="path2943"
               style="fill:none;stroke:#c4122e;stroke-width:7.44899988;stroke-linecap:butt;stroke-linejoin:miter;stroke-miterlimit:4;stroke-opacity:1;stroke-dasharray:none"
               d="m 355.66,734.629 153.164,0" />
            <path
               id="path2945"
               style="fill:none;stroke:#c4122e;stroke-width:7.9829998;stroke-linecap:butt;stroke-linejoin:miter;stroke-miterlimit:4;stroke-opacity:1;stroke-dasharray:none"
               d="m 395.473,735.965 0,-104.34" />
            <path
               id="path2947"
               style="fill:none;stroke:#c4122e;stroke-width:7.9829998;stroke-linecap:butt;stroke-linejoin:miter;stroke-miterlimit:4;stroke-opacity:1;stroke-dasharray:none"
               d="m 374.477,735.965 -0.079,-90.117" />
            <path
               id="path2949"
               style="fill:none;stroke:#c4122e;stroke-width:7.9829998;stroke-linecap:butt;stroke-linejoin:miter;stroke-miterlimit:4;stroke-opacity:1;stroke-dasharray:none"
               d="m 417.906,735.965 0,-119.235" />
            <path
               id="path2951"
               style="fill:none;stroke:#c4122e;stroke-width:7.9829998;stroke-linecap:butt;stroke-linejoin:miter;stroke-miterlimit:4;stroke-opacity:1;stroke-dasharray:none"
               d="m 440.316,735.965 0,-120.653" />
            <path
               id="path2953"
               style="fill:none;stroke:#c4122e;stroke-width:7.9829998;stroke-linecap:butt;stroke-linejoin:miter;stroke-miterlimit:4;stroke-opacity:1;stroke-dasharray:none"
               d="m 462.734,735.965 0,-108.598" />
            <path
               id="path2955"
               style="fill:none;stroke:#c4122e;stroke-width:7.9829998;stroke-linecap:butt;stroke-linejoin:miter;stroke-miterlimit:4;stroke-opacity:1;stroke-dasharray:none"
               d="m 485.129,735.965 0,-96.035" />
            <path
               id="path2957"
               style="fill:none;stroke:#c4122e;stroke-width:8.51399994;stroke-linecap:butt;stroke-linejoin:miter;stroke-miterlimit:4;stroke-opacity:1;stroke-dasharray:none"
               d="m 654.254,609.559 c 0,0 -33.145,19.355 -54.77,33.863 -21.632,14.488 -21.757,25.508 -22,28.332 -0.191,2.82 -0.097,107.664 -0.097,107.664 l 154.675,0 c 0,0 0.2,-104.844 -0.015,-107.664 -0.227,-2.824 1.062,-13.844 -20.543,-28.332 -21.629,-14.508 -57.25,-33.863 -57.25,-33.863 z" />
            <path
               id="path2959"
               style="fill:none;stroke:#c4122e;stroke-width:7.44899988;stroke-linecap:butt;stroke-linejoin:miter;stroke-miterlimit:4;stroke-opacity:1;stroke-dasharray:none"
               d="m 586.582,708.539 68.793,27.488 74.43,-47.601" />
            <path
               id="path2961"
               style="fill:none;stroke:#c4122e;stroke-width:7.44899988;stroke-linecap:butt;stroke-linejoin:miter;stroke-miterlimit:4;stroke-opacity:1;stroke-dasharray:none"
               d="m 601.387,714.867 -22.93,14.828" />
            <path
               id="path2963"
               style="fill:none;stroke:#c4122e;stroke-width:7.44899988;stroke-linecap:butt;stroke-linejoin:miter;stroke-miterlimit:4;stroke-opacity:1;stroke-dasharray:none"
               d="m 702.309,706.078 27.879,13.02" />
            <path
               id="path2965"
               style="fill:none;stroke:#c4122e;stroke-width:6.38500023;stroke-linecap:butt;stroke-linejoin:miter;stroke-miterlimit:4;stroke-opacity:1;stroke-dasharray:none"
               d="m 640.988,733.52 c -0.773,2.109 -1.062,4.382 -0.789,6.742 0.844,8.332 8.321,14.379 16.68,13.511 8.328,-0.878 14.406,-8.355 13.523,-16.695 -0.214,-2.058 -1.25,-4.683 -2.195,-6.406" />
            <path
               id="path2967"
               style="fill:none;stroke:#c4122e;stroke-width:6.38500023;stroke-linecap:butt;stroke-linejoin:miter;stroke-miterlimit:4;stroke-opacity:1;stroke-dasharray:none"
               d="m 629.488,741.129 -52.101,0" />
            <path
               id="path2969"
               style="fill:none;stroke:#c4122e;stroke-width:6.38500023;stroke-linecap:butt;stroke-linejoin:miter;stroke-miterlimit:4;stroke-opacity:1;stroke-dasharray:none"
               d="m 635.09,753.543 -51.317,26.598" />
            <path
               id="path2971"
               style="fill:none;stroke:#c4122e;stroke-width:6.38500023;stroke-linecap:butt;stroke-linejoin:miter;stroke-miterlimit:4;stroke-opacity:1;stroke-dasharray:none"
               d="m 675.348,753.895 50.394,26.199" />
            <path
               id="path2973"
               style="fill:none;stroke:#c4122e;stroke-width:6.38500023;stroke-linecap:butt;stroke-linejoin:miter;stroke-miterlimit:4;stroke-opacity:1;stroke-dasharray:none"
               d="m 645.98,761.348 -12.132,19.515" />
            <path
               id="path2975"
               style="fill:none;stroke:#c4122e;stroke-width:6.38500023;stroke-linecap:butt;stroke-linejoin:miter;stroke-miterlimit:4;stroke-opacity:1;stroke-dasharray:none"
               d="m 663.266,761.762 11.836,18.73" />
            <path
               id="path2977"
               style="fill:none;stroke:#c4122e;stroke-width:6.38500023;stroke-linecap:butt;stroke-linejoin:miter;stroke-miterlimit:4;stroke-opacity:1;stroke-dasharray:none"
               d="m 681.117,741.129 51.145,0" />
            <path
               id="path2979"
               style="fill:none;stroke:#c4122e;stroke-width:7.44899988;stroke-linecap:butt;stroke-linejoin:miter;stroke-miterlimit:4;stroke-opacity:1;stroke-dasharray:none"
               d="m 649.145,643.148 62.324,0" />
            <path
               id="path2981"
               style="fill:none;stroke:#c4122e;stroke-width:7.44899988;stroke-linecap:butt;stroke-linejoin:miter;stroke-miterlimit:4;stroke-opacity:1;stroke-dasharray:none"
               d="m 576.367,679.148 22.903,0" />
            <path
               id="path2983"
               style="fill:none;stroke:#c4122e;stroke-width:7.44899988;stroke-linecap:butt;stroke-linejoin:miter;stroke-miterlimit:4;stroke-opacity:1;stroke-dasharray:none"
               d="m 668.73,679.148 64.297,0" />
            <path
               id="path2985"
               style="fill:none;stroke:#c4122e;stroke-width:4.25699997;stroke-linecap:butt;stroke-linejoin:miter;stroke-miterlimit:4;stroke-opacity:1;stroke-dasharray:none"
               d="m 599.27,659.891 71.449,0" />
            <path
               id="path2987"
               style="fill:none;stroke:#c4122e;stroke-width:5.32200003;stroke-linecap:butt;stroke-linejoin:miter;stroke-miterlimit:4;stroke-opacity:1;stroke-dasharray:none"
               d="m 643.305,699.496 7.554,3.484 22.555,-29.632 -24.144,-5.645 -7.497,44.133 -18.253,0 -4.668,-41.125 -20.668,0 9.086,30.172 15.445,0" />
            <path
               id="path2989"
               style="fill:none;stroke:#c4122e;stroke-width:6.38500023;stroke-linecap:butt;stroke-linejoin:miter;stroke-miterlimit:4;stroke-opacity:1;stroke-dasharray:none"
               d="m 602.461,686.754 17.281,0" />
            <path
               id="path2991"
               style="fill:none;stroke:#c4122e;stroke-width:6.38500023;stroke-linecap:butt;stroke-linejoin:miter;stroke-miterlimit:4;stroke-opacity:1;stroke-dasharray:none"
               d="m 623.258,695.004 20.105,0" />
            <path
               id="path2993"
               style="fill:none;stroke:#c4122e;stroke-width:6.38500023;stroke-linecap:butt;stroke-linejoin:miter;stroke-miterlimit:4;stroke-opacity:1;stroke-dasharray:none"
               d="m 620.445,674.637 25.821,0" />
            <path
               id="path2995"
               style="fill:none;stroke:#c4122e;stroke-width:3.19199991;stroke-linecap:butt;stroke-linejoin:miter;stroke-miterlimit:4;stroke-opacity:1;stroke-dasharray:none"
               d="m 596.945,663.035 1.7,-4.168 71.175,0 5.242,4.168 -78.117,0 z" />
            <path
               id="path2997"
               style="fill:none;stroke:#c4122e;stroke-width:8.51399994;stroke-linecap:butt;stroke-linejoin:miter;stroke-miterlimit:4;stroke-opacity:1;stroke-dasharray:none"
               d="m 422.348,529.52 -19.239,0 0,-205.223 124.504,0 c 0,0 2.157,-10.176 15.36,-10.176" />
            <path
               id="path2999"
               style="fill:none;stroke:#c4122e;stroke-width:8.51399994;stroke-linecap:butt;stroke-linejoin:miter;stroke-miterlimit:4;stroke-opacity:1;stroke-dasharray:none"
               d="m 543.062,533.438 0,-198.614" />
            <path
               id="path3001"
               style="fill:none;stroke:#c4122e;stroke-width:8.51399994;stroke-linecap:butt;stroke-linejoin:miter;stroke-miterlimit:4;stroke-opacity:1;stroke-dasharray:none"
               d="m 378.613,485.801 24.3789,0 0,24.3555 -24.3789,0 0,-24.3555 z" />
            <path
               id="path3003"
               style="fill:none;stroke:#c4122e;stroke-width:8.51399994;stroke-linecap:butt;stroke-linejoin:miter;stroke-miterlimit:4;stroke-opacity:1;stroke-dasharray:none"
               d="m 378.613,344.062 24.3789,0 0,24.375 -24.3789,0 0,-24.375 z" />
            <path
               id="path3005"
               style="fill:none;stroke:#c4122e;stroke-width:8.51399994;stroke-linecap:butt;stroke-linejoin:miter;stroke-miterlimit:4;stroke-opacity:1;stroke-dasharray:none"
               d="m 378.613,414.922 24.3789,0 0,24.375 -24.3789,0 0,-24.375 z" />
            <path
               id="path3007"
               style="fill:none;stroke:#c4122e;stroke-width:8.51399994;stroke-linecap:butt;stroke-linejoin:miter;stroke-miterlimit:4;stroke-opacity:1;stroke-dasharray:none"
               d="m 664.016,529.52 19.238,0 0,-205.223 -124.52,0 c 0,0 -2.566,-10.176 -15.804,-10.176" />
            <path
               id="path3009"
               style="fill:none;stroke:#c4122e;stroke-width:8.51399994;stroke-linecap:butt;stroke-linejoin:miter;stroke-miterlimit:4;stroke-opacity:1;stroke-dasharray:none"
               d="m 683.254,485.801 24.3672,0 0,24.3555 -24.3672,0 0,-24.3555 z" />
            <path
               id="path3011"
               style="fill:none;stroke:#c4122e;stroke-width:8.51399994;stroke-linecap:butt;stroke-linejoin:miter;stroke-miterlimit:4;stroke-opacity:1;stroke-dasharray:none"
               d="m 683.254,344.062 24.3672,0 0,24.375 -24.3672,0 0,-24.375 z" />
            <path
               id="path3013"
               style="fill:none;stroke:#c4122e;stroke-width:8.51399994;stroke-linecap:butt;stroke-linejoin:miter;stroke-miterlimit:4;stroke-opacity:1;stroke-dasharray:none"
               d="m 683.254,414.922 24.3672,0 0,24.375 -24.3672,0 0,-24.375 z" />
            <g
               transform="scale(10,10)"
               id="g3015" />
            <path
               id="path3017"
               style="fill:none;stroke:#c4122e;stroke-width:8.51399994;stroke-linecap:butt;stroke-linejoin:miter;stroke-miterlimit:4;stroke-opacity:1;stroke-dasharray:none"
               d="m 543.062,589.012 0,-55.574" />
            <path
               id="path3019"
               style="fill:none;stroke:#c4122e;stroke-width:5.28800011;stroke-linecap:butt;stroke-linejoin:miter;stroke-miterlimit:4;stroke-opacity:1;stroke-dasharray:none"
               d="m 123.203,601.645 c 0.938,-5.512 1.617,-11.43 1.274,-17.071 -1.547,-24.054 -14.649,-39.98 -39.77,-38.363 -25.4375,1.621 -38.6875,18.074 -37.0703,43.289 0.3164,4.895 1.6836,11.328 4.1719,16.617 l 12.4726,-1.875 c -3.5585,-5.422 -4.6289,-10.488 -4.9609,-15.804 -0.9844,-15.329 10.0938,-25.653 25.3203,-26.629 15.1094,-0.965 27.0934,7.664 28.1174,23.511 0.383,5.86 -0.453,12.868 -2.059,16.485 l 12.504,-0.16 z" />
            <path
               id="path3021"
               style="fill:none;stroke:#c4122e;stroke-width:5.28800011;stroke-linecap:butt;stroke-linejoin:miter;stroke-miterlimit:4;stroke-opacity:1;stroke-dasharray:none"
               d="m 127.301,662.949 c 4.09,14.676 -7.422,23.774 -20.356,27.387 -12.6286,3.523 -27.2184,1.289 -31.2067,-12.992 -3.9805,-14.27 7.3203,-23.739 19.9609,-27.266 12.9258,-3.617 27.4888,-1.828 31.6018,12.871 z m -62.8674,17.555 c 6.2891,22.488 25.0039,30.879 46.6994,24.816 21.664,-6.05 33.793,-22.84 27.461,-45.535 -6.434,-22.992 -25.117,-30.851 -47.0784,-24.699 -22,6.133 -33.4336,22.617 -27.082,45.418 z" />
            <path
               id="path3023"
               style="fill:none;stroke:#c4122e;stroke-width:5.28800011;stroke-linecap:butt;stroke-linejoin:miter;stroke-miterlimit:4;stroke-opacity:1;stroke-dasharray:none"
               d="m 125.004,748.297 2.226,4.375 c 3.332,6.555 6.204,14.551 -2.082,18.75 -7.976,4.055 -12.41,-3.016 -15.781,-9.68 l -2.226,-4.379 17.863,-9.066 z m -35.0899,1.066 7.2968,14.364 c 7.2381,14.261 15.3911,31.527 33.8481,22.164 7.785,-3.957 11.597,-12.473 8.457,-21.512 l 0.203,-0.098 c 2.101,3.473 6.781,3.731 10.394,3.559 l 31.356,-2.516 -7.524,-14.836 -24.773,2.528 c -5.914,0.613 -8.688,-0.141 -11.531,-5.743 l -2.168,-4.285 27.574,-13.984 -6.746,-13.332 -66.3869,33.691 z" />
            <path
               id="path3025"
               style="fill:none;stroke:#c4122e;stroke-width:5.28800011;stroke-linecap:butt;stroke-linejoin:miter;stroke-miterlimit:4;stroke-opacity:1;stroke-dasharray:none"
               d="m 136.273,832.039 11.399,14.356 61.234,-12.395 0.141,0.164 -43.594,34.613 8.887,11.184 58.289,-46.289 -11.356,-14.277 -61.281,12.324 -0.133,-0.16 43.575,-34.625 -8.879,-11.192 -58.282,46.297 z" />
            <path
               id="path3027"
               style="fill:none;stroke:#c4122e;stroke-width:5.28800011;stroke-linecap:butt;stroke-linejoin:miter;stroke-miterlimit:4;stroke-opacity:1;stroke-dasharray:none"
               d="m 206.477,911.824 33.523,28.403 7.57,-8.938 -22.109,-18.762 11.863,-13.984 20.238,17.18 7.59,-8.965 -20.254,-17.168 13.52,-15.945 22.277,18.902 7.59,-8.953 -33.68,-28.547 -48.128,56.777 z" />
            <path
               id="path3029"
               style="fill:none;stroke:#c4122e;stroke-width:5.28800011;stroke-linecap:butt;stroke-linejoin:miter;stroke-miterlimit:4;stroke-opacity:1;stroke-dasharray:none"
               d="m 273.16,963.422 12.836,7.633 32.063,-53.883 24.828,14.769 6.004,-10.078 -37.661,-22.402 -38.07,63.961 z" />
            <path
               id="path3031"
               style="fill:none;stroke:#c4122e;stroke-width:5.28800011;stroke-linecap:butt;stroke-linejoin:miter;stroke-miterlimit:4;stroke-opacity:1;stroke-dasharray:none"
               d="m 346.301,1002.27 13.937,5.35 22.43,-58.558 26.973,10.34 4.199,-10.945 -40.934,-15.68 -26.605,69.493 z" />
            <path
               id="path3033"
               style="fill:none;stroke:#c4122e;stroke-width:5.28800011;stroke-linecap:butt;stroke-linejoin:miter;stroke-miterlimit:4;stroke-opacity:1;stroke-dasharray:none"
               d="m 474.164,1037.75 14.91,1.02 2.942,-42.868 c 0.871,-12.656 5.5,-20.683 16.882,-19.898 11.36,0.777 14.844,9.351 13.969,22.012 l -2.941,42.874 14.875,1.03 3.277,-47.443 c 1.371,-19.899 -9.324,-28.864 -28.387,-30.176 -19.05,-1.305 -30.882,6.097 -32.25,26 l -3.277,47.449 z" />
            <path
               id="path3035"
               style="fill:none;stroke:#c4122e;stroke-width:5.28800011;stroke-linecap:butt;stroke-linejoin:miter;stroke-miterlimit:4;stroke-opacity:1;stroke-dasharray:none"
               d="m 577.59,1040.54 18.187,-2.33 21.071,-58.804 0.218,-0.027 7.051,55.221 14.18,-1.81 -9.43,-73.829 -18.086,2.305 -21.191,58.814 -0.219,0.04 -7.047,-55.233 -14.164,1.828 9.43,73.825 z" />
            <path
               id="path3037"
               style="fill:none;stroke:#c4122e;stroke-width:5.28800011;stroke-linecap:butt;stroke-linejoin:miter;stroke-miterlimit:4;stroke-opacity:1;stroke-dasharray:none"
               d="m 681.105,1022.02 14.321,-4.2 -20.961,-71.433 -14.328,4.207 20.968,71.426 z" />
            <path
               id="path3039"
               style="fill:none;stroke:#c4122e;stroke-width:5.28800011;stroke-linecap:butt;stroke-linejoin:miter;stroke-miterlimit:4;stroke-opacity:1;stroke-dasharray:none"
               d="m 731.344,1006.43 14.418,-6.879 -7.867,-60.961 0.183,-0.106 42.172,44.661 13.383,-6.368 -54.613,-56.429 -16.567,7.879 8.891,78.203 z" />
            <path
               id="path3041"
               style="fill:none;stroke:#c4122e;stroke-width:5.28800011;stroke-linecap:butt;stroke-linejoin:miter;stroke-miterlimit:4;stroke-opacity:1;stroke-dasharray:none"
               d="m 823.859,957.324 35.457,-25.918 -6.898,-9.468 -23.422,17.097 -10.828,-14.808 21.445,-15.653 -6.902,-9.476 -21.461,15.664 -12.324,-16.883 23.59,-17.227 -6.918,-9.468 -35.633,26.039 43.894,60.101 z" />
            <path
               id="path3043"
               style="fill:none;stroke:#c4122e;stroke-width:5.28800011;stroke-linecap:butt;stroke-linejoin:miter;stroke-miterlimit:4;stroke-opacity:1;stroke-dasharray:none"
               d="m 879.828,869.242 3.34,-3.597 c 4.996,-5.375 11.516,-10.829 18.328,-4.532 6.566,6.098 1.449,12.696 -3.633,18.168 l -3.347,3.594 -14.688,-13.633 z m 13.156,32.555 10.926,-11.793 c 10.899,-11.734 24.27,-25.352 9.113,-39.43 -6.402,-5.945 -15.722,-6.57 -23.117,-0.492 l -0.148,-0.148 c 2.519,-3.18 1.152,-7.661 -0.27,-11.008 l -13.203,-28.563 -11.32,12.203 10.937,22.375 c 2.625,5.34 2.871,8.188 -1.406,12.801 l -3.262,3.528 -22.656,-21.036 -10.148,10.942 54.554,50.621 z" />
            <path
               id="path3045"
               style="fill:none;stroke:#c4122e;stroke-width:5.28800011;stroke-linecap:butt;stroke-linejoin:miter;stroke-miterlimit:4;stroke-opacity:1;stroke-dasharray:none"
               d="m 964.781,786.336 c -0.761,5.047 -2.519,10.102 -5.277,14.547 -2.707,4.34 -8.086,8.777 -14.973,4.512 -10.972,-6.817 10.879,-31.661 -10.336,-44.836 -13.84,-8.606 -25.902,-0.907 -33.824,11.863 -4.281,6.883 -5.301,10.531 -7.644,17.734 l 12.156,5.918 c 0.332,-5.812 1.91,-11.754 4.98,-16.734 2.992,-4.805 9.43,-9.707 15.149,-6.176 12.023,7.488 -10.168,32.106 10.761,45.102 14.133,8.789 26.102,1.043 33.02,-10.11 3.379,-5.429 5.809,-10.957 7.125,-16.531 l -11.137,-5.289 z" />
            <path
               id="path3047"
               style="fill:none;stroke:#c4122e;stroke-width:5.28800011;stroke-linecap:butt;stroke-linejoin:miter;stroke-miterlimit:4;stroke-opacity:1;stroke-dasharray:none"
               d="m 997.082,751.969 5.888,-13.711 -68.4,-29.367 -5.906,13.711 68.418,29.367 z" />
            <path
               id="path3049"
               style="fill:none;stroke:#c4122e;stroke-width:5.28800011;stroke-linecap:butt;stroke-linejoin:miter;stroke-miterlimit:4;stroke-opacity:1;stroke-dasharray:none"
               d="m 1010.45,680.391 -5.4,20.629 11.35,2.972 14.59,-55.719 -11.35,-2.972 -5.41,20.637 -60.64,-15.883 -3.793,14.445 60.653,15.891 z" />
            <path
               id="path3051"
               style="fill:none;stroke:#c4122e;stroke-width:5.28800011;stroke-linecap:butt;stroke-linejoin:miter;stroke-miterlimit:4;stroke-opacity:1;stroke-dasharray:none"
               d="m 993.516,585.977 43.174,30.023 1.12,-17.461 -30.07,-19.555 32.35,-15.879 1,-15.753 -46.621,23.726 -29.367,-1.879 -0.957,14.899 29.371,1.879 z" />
            <path
               id="path3053"
               style="fill:none;stroke:#c4122e;stroke-width:5.28800011;stroke-linecap:butt;stroke-linejoin:miter;stroke-miterlimit:4;stroke-opacity:1;stroke-dasharray:none"
               d="m 125.688,455.371 10.546,-39.863 -11.328,-3.008 -6.746,25.477 -17.719,-4.688 6.414,-24.246 -11.3511,-3 -6.3906,24.25 -31.5625,-8.34 -3.8086,14.383 71.9458,19.035 z" />
            <path
               id="path3055"
               style="fill:none;stroke:#c4122e;stroke-width:5.28800011;stroke-linecap:butt;stroke-linejoin:miter;stroke-miterlimit:4;stroke-opacity:1;stroke-dasharray:none"
               d="m 100.539,334.902 c 6.602,-13.683 21.238,-12.871 33.344,-7.023 11.816,5.695 21.273,16.992 14.859,30.305 -6.414,13.3 -21.156,12.91 -32.961,7.214 -12.097,-5.847 -21.863,-16.804 -15.242,-30.496 z m 58.762,28.379 c 10.117,-20.957 1.594,-39.601 -18.684,-49.375 -20.254,-9.777 -40.449,-5.254 -50.6443,15.899 -10.3594,21.433 -1.4961,39.636 19.0543,49.57 20.543,9.922 40.016,5.145 50.274,-16.094 z" />
            <path
               id="path3057"
               style="fill:none;stroke:#c4122e;stroke-width:5.28800011;stroke-linecap:butt;stroke-linejoin:miter;stroke-miterlimit:4;stroke-opacity:1;stroke-dasharray:none"
               d="m 188.789,307.559 9.191,-11.7 -33.765,-26.562 c -9.992,-7.852 -14.039,-16.172 -7.004,-25.109 7.043,-8.934 16.062,-6.961 26.066,0.89 l 33.758,26.551 9.192,-11.707 -37.375,-29.387 c -15.676,-12.332 -29.094,-8.543 -40.848,6.406 -11.77,14.934 -12.266,28.887 3.414,41.211 l 37.371,29.407 z" />
            <path
               id="path3059"
               style="fill:none;stroke:#c4122e;stroke-width:5.28800011;stroke-linecap:butt;stroke-linejoin:miter;stroke-miterlimit:4;stroke-opacity:1;stroke-dasharray:none"
               d="m 248.559,237.012 14.054,-11.68 -13.82,-60.891 0.164,-0.136 35.57,42.824 10.961,-9.082 -47.566,-57.266 -13.965,11.602 13.731,60.957 -0.168,0.137 -35.567,-42.825 -10.961,9.094 47.567,57.266 z" />
            <path
               id="path3061"
               style="fill:none;stroke:#c4122e;stroke-width:5.28800011;stroke-linecap:butt;stroke-linejoin:miter;stroke-miterlimit:4;stroke-opacity:1;stroke-dasharray:none"
               d="m 309,116.336 7.383,-3.797 c 11.043,-5.695 25.976,-2.949 33.394,11.445 7.434,14.414 1.02,28.164 -10.031,33.856 l -7.363,3.801 L 309,116.336 z m 15.535,62.551 18.02,-9.297 c 20.23,-10.442 34.57,-26.465 21.031,-52.727 -13.543,-26.2497 -34.918,-23.8474 -55.125,-13.445 l -18.055,9.297 34.129,66.172 z" />
            <path
               id="path3063"
               style="fill:none;stroke:#c4122e;stroke-width:5.28800011;stroke-linecap:butt;stroke-linejoin:miter;stroke-miterlimit:4;stroke-opacity:1;stroke-dasharray:none"
               d="m 407.359,140.535 42.032,-12.273 -3.305,-11.27 -27.746,8.094 -5.156,-17.598 25.41,-7.41 -3.27,-11.2694 -25.41,7.4219 L 404.066,76.1797 431.992,68 428.703,56.75 386.48,69.1016 407.359,140.535 z" />
            <path
               id="path3065"
               style="fill:none;stroke:#c4122e;stroke-width:5.28800011;stroke-linecap:butt;stroke-linejoin:miter;stroke-miterlimit:4;stroke-opacity:1;stroke-dasharray:none"
               d="m 492.543,57.6914 8.258,-0.6602 c 12.406,-1.0117 25.109,7.2774 26.41,23.4297 1.301,16.1602 -9.93,26.3751 -22.328,27.3791 l -8.258,0.644 -4.082,-50.7926 z m -9.805,63.6836 20.235,-1.621 c 22.672,-1.824 42.07,-11.082 39.715,-40.5352 -2.364,-29.4376 -23.016,-35.4883 -45.696,-33.668 l -20.219,1.6289 5.965,74.1953 z" />
            <path
               id="path3067"
               style="fill:none;stroke:#c4122e;stroke-width:5.28800011;stroke-linecap:butt;stroke-linejoin:miter;stroke-miterlimit:4;stroke-opacity:1;stroke-dasharray:none"
               d="m 638.559,113.152 -0.196,-0.047 -3.578,-32.3433 21.129,4.8672 -17.355,27.5231 z m -11.297,12.707 16.363,3.77 45.066,-66.0079 -16.07,-3.6914 -10.023,15.1914 -29.317,-6.75 -2.488,-18.082 -15.031,-3.4375 11.5,79.0074 z" />
            <path
               id="path3069"
               style="fill:none;stroke:#c4122e;stroke-width:5.28800011;stroke-linecap:butt;stroke-linejoin:miter;stroke-miterlimit:4;stroke-opacity:1;stroke-dasharray:none"
               d="m 701.32,85.0586 13.926,5.2226 5.246,-13.9804 -13.933,-5.2305 -5.239,13.9883 z" />
            <path
               id="path3071"
               style="fill:none;stroke:#c4122e;stroke-width:5.28800011;stroke-linecap:butt;stroke-linejoin:miter;stroke-miterlimit:4;stroke-opacity:1;stroke-dasharray:none"
               d="m 755.375,104.422 7.305,3.918 c 10.965,5.867 17.183,19.707 9.527,34.004 -7.652,14.277 -22.633,16.797 -33.578,10.918 l -7.305,-3.907 24.051,-44.933 z m -42.707,48.254 17.891,9.57 c 20.058,10.742 41.379,13.457 55.32,-12.59 13.937,-26.035 -0.133,-42.293 -20.191,-53.0271 l -17.883,-9.5703 -35.137,65.6174 z" />
            <path
               id="path3073"
               style="fill:none;stroke:#c4122e;stroke-width:5.28800011;stroke-linecap:butt;stroke-linejoin:miter;stroke-miterlimit:4;stroke-opacity:1;stroke-dasharray:none"
               d="m 811.586,141.191 12.184,8.536 8.554,-12.227 -12.183,-8.547 -8.555,12.238 z" />
            <path
               id="path3075"
               style="fill:none;stroke:#c4122e;stroke-width:5.28800011;stroke-linecap:butt;stroke-linejoin:miter;stroke-miterlimit:4;stroke-opacity:1;stroke-dasharray:none"
               d="m 847.918,249.082 9.195,9.441 53.317,-51.902 -10.368,-10.664 -41.175,40.078 -1.422,-16.133 -12.149,1.446 2.602,27.734 z" />
            <path
               id="path3077"
               style="fill:none;stroke:#c4122e;stroke-width:5.28800011;stroke-linecap:butt;stroke-linejoin:miter;stroke-miterlimit:4;stroke-opacity:1;stroke-dasharray:none"
               d="m 927.562,258.934 c 5.012,-3.614 11.668,-1.844 15.165,2.98 3.461,4.824 3.171,10.801 -1.856,14.414 -5.969,4.297 -12.492,1.27 -17.742,-2.558 -1.027,-5.801 -0.684,-11.172 4.433,-14.836 z m -16.269,37.101 c -4.484,3.242 -9.652,2.637 -12.949,-1.933 -3.164,-4.414 -3.91,-10.547 0.937,-14.036 5.203,-3.738 11.383,-0.066 15.93,2.95 1.207,4.23 -0.176,10.343 -3.918,13.019 z m 15.113,-6.582 c 9.453,5.242 15.707,4.297 22.633,-0.664 12.203,-8.789 11.231,-21.457 2.676,-33.359 -8.457,-11.739 -20.391,-17.539 -32.676,-8.703 -6.754,4.863 -8.676,12.011 -7.043,21.816 l -0.16,0.129 c -7.016,-4.102 -14.91,-4.465 -21.227,0.078 -10.808,7.781 -10.031,19.668 -2.148,30.625 7.648,10.594 19.66,17.187 29.785,9.902 5.461,-3.937 10.035,-11.113 7.93,-19.687 l 0.23,-0.137 z" />
            <path
               id="path3079"
               style="fill:none;stroke:#c4122e;stroke-width:5.28800011;stroke-linecap:butt;stroke-linejoin:miter;stroke-miterlimit:4;stroke-opacity:1;stroke-dasharray:none"
               d="m 970.902,333.398 c 6.336,-3.046 13.211,-3.027 16.379,3.563 2.973,6.23 -1.832,11.719 -7.789,14.59 -6.551,3.137 -13.887,3.371 -16.953,-3.055 -3.141,-6.504 1.621,-11.867 8.363,-15.098 z m -21.523,42.891 c -3.246,-2.812 -6.156,-5.898 -8.328,-10.41 -5.547,-11.594 3.324,-20.684 13.133,-25.879 l 0.285,0.105 c -3.098,5.383 -3.219,10.52 -0.512,16.165 6.082,12.636 17.465,15.664 29.863,9.707 14.532,-6.973 20.71,-18.672 13.45,-33.821 -8.918,-18.582 -26.368,-15.261 -42.149,-7.695 -18.164,8.73 -35.351,24.172 -24.953,45.832 2.348,4.883 5.336,9.121 9.18,12.93 l 10.031,-6.934 z" />
            <path
               id="path3081"
               style="fill:none;stroke:#c4122e;stroke-width:5.28800011;stroke-linecap:butt;stroke-linejoin:miter;stroke-miterlimit:4;stroke-opacity:1;stroke-dasharray:none"
               d="m 972.133,456.426 -7.235,-27.676 15.301,-4.316 c 0.113,1.718 0.266,3.992 0.996,6.777 2.625,10.066 10.797,21.894 29.475,16.992 13.5,-3.527 21.98,-15.851 17.13,-34.355 -1.46,-5.559 -4.08,-11.778 -6.45,-16.211 l -12.81,3.672 c 2.34,3.125 5.81,7.5 7.46,13.769 1.96,7.5 0.49,16.231 -8.69,18.633 -9.302,2.441 -14.65,-4.973 -16.783,-13.184 -1.168,-4.433 -1.64,-8.808 -1.402,-13.371 l -38.516,10.832 10.797,41.231 10.727,-2.793 z" />
            <path
               id="path3083"
               style="fill:#c4122e;fill-opacity:1;fill-rule:nonzero;stroke:none"
               d="m 1526.24,472.695 -5.21,-12.422 c -10.42,-5.273 -20.61,-9.101 -30.59,-11.464 -9.97,-2.364 -20.83,-3.555 -32.59,-3.555 -13.8,0 -26.62,1.738 -38.46,5.215 -11.84,3.457 -22.18,8.437 -31.05,14.883 -8.85,6.464 -16.09,13.691 -21.71,21.718 -5.6,8.008 -9.88,16.719 -12.82,26.114 -2.94,9.394 -4.4,19.707 -4.4,30.918 0,28.414 9.91,51.949 29.72,70.605 19.8,18.656 46.86,27.988 81.13,27.988 8.1,0 15.6,-0.48 22.51,-1.418 6.89,-0.929 15.3,-2.715 25.23,-5.343 9.93,-2.637 16.01,-4.176 18.24,-4.622 -1.95,-4.902 -3.41,-9.726 -4.39,-14.449 -1.42,-7.582 -2.4,-16.371 -2.93,-26.359 l -8.31,0 -0.13,15.84 c -0.9,8.773 -5.73,15.301 -14.51,19.597 -8.79,4.293 -21.67,6.442 -38.62,6.442 -12.67,-0.168 -23.42,-1.793 -32.25,-4.867 -8.84,-3.086 -16.62,-7.93 -23.35,-14.559 -6.74,-6.641 -12.25,-15.059 -16.53,-25.246 -4.29,-10.207 -6.47,-23.004 -6.56,-38.406 0,-26.981 8.24,-48.68 24.73,-65.106 16.48,-16.445 38.28,-24.648 65.37,-24.648 12.2,0 23.52,1.679 33.96,5.058 7.12,2.286 14.2,5.938 21.24,10.899 l 2.28,-2.813" />
            <path
               id="path3085"
               style="fill:#c4122e;fill-opacity:1;fill-rule:nonzero;stroke:none"
               d="m 1555.74,520.43 c 0,-10.938 1.83,-22.051 5.48,-33.34 3.64,-11.289 8.92,-19.531 15.82,-24.727 6.89,-5.195 14.39,-7.793 22.5,-7.793 10.32,0 18.95,4.082 25.89,12.266 6.94,8.164 10.41,20.742 10.41,37.734 0,14.121 -2.07,26.328 -6.21,36.59 -4.13,10.27 -9.4,17.512 -15.82,21.735 -6.4,4.23 -13.47,6.332 -21.23,6.332 -10.94,0 -19.82,-3.95 -26.62,-11.86 -6.82,-7.922 -10.22,-20.219 -10.22,-36.937 z m -25.26,-9.922 c 0,19.93 6.35,36.199 19.05,48.797 12.71,12.597 28.99,18.902 48.87,18.902 18.72,0 33.96,-5.879 45.72,-17.633 11.77,-11.746 17.65,-26.922 17.65,-45.535 0,-13.008 -3.02,-24.883 -9.09,-35.664 -6.06,-10.781 -14.62,-19.199 -25.67,-25.313 -11.05,-6.093 -23.22,-9.14 -36.5,-9.14 -10.34,0 -19.1,1.738 -26.27,5.215 -7.18,3.457 -12.98,7.832 -17.44,13.086 -4.46,5.254 -7.85,10.644 -10.17,16.152 -4.1,9.707 -6.15,20.078 -6.15,31.133" />
            <path
               id="path3087"
               style="fill:#c4122e;fill-opacity:1;fill-rule:nonzero;stroke:none"
               d="m 1670.4,448.906 0,7.656 c 10.12,0.176 15.59,0.352 16.4,0.528 1.53,0.254 2.67,0.683 3.43,1.269 0.76,0.586 1.37,1.407 1.82,2.481 0.88,2.051 1.43,5.273 1.61,9.629 0.44,23.828 0.67,36.269 0.67,37.343 l 0,15.918 c 0,7.149 -0.23,14.813 -0.67,23.024 -0.18,5.258 -0.55,8.379 -1.11,9.351 -0.58,0.993 -1.58,1.731 -3.03,2.219 -1.44,0.492 -7.15,0.696 -17.13,0.606 l 0,7.652 c 17.8,2.461 30.79,5.68 38.98,9.645 1.76,0.875 2.95,1.312 3.58,1.312 0.61,0 1.09,-0.227 1.44,-0.672 0.36,-0.441 0.54,-1.109 0.54,-2.015 0,-0.622 -0.04,-1.332 -0.1,-2.137 -0.32,-5.453 -0.5,-13.91 -0.57,-25.348 4.02,4.617 7.73,9.207 11.11,13.754 3.4,4.531 5.86,7.473 7.39,8.809 2.67,2.32 5.76,4.156 9.24,5.539 3.49,1.383 7.1,2.07 10.85,2.07 3.75,0 7.46,-0.801 11.13,-2.406 l 0.8,-1.863 c -1.37,-11.848 -2.14,-22.258 -2.33,-31.258 l -6,0 c -2.06,4.261 -4.45,7.383 -7.18,9.332 -2.71,1.945 -6.13,2.926 -10.23,2.926 -6.88,0 -12.73,-2.825 -17.55,-8.473 -4.83,-5.649 -7.23,-14.117 -7.23,-25.426 l 0,-13.75 c 0,-5.879 0.22,-16.601 0.67,-32.168 0.09,-5.527 0.31,-9.043 0.67,-10.547 0.35,-1.523 0.82,-2.617 1.4,-3.281 0.58,-0.664 1.52,-1.23 2.87,-1.66 2.67,-0.82 9.89,-1.621 21.64,-2.403 l 0,-7.656 c -15.66,0.664 -28.99,0.996 -40.02,0.996 -11.4,0 -22.43,-0.332 -33.09,-0.996" />
            <path
               id="path3089"
               style="fill:#c4122e;fill-opacity:1;fill-rule:nonzero;stroke:none"
               d="m 1778.92,448.906 0,7.656 12.71,0.137 c 1.87,0.078 3.32,0.41 4.35,0.996 1.03,0.586 1.81,1.309 2.34,2.207 0.98,1.778 1.61,4.961 1.88,9.493 0,1.171 0.22,13.984 0.66,38.417 l 0,15.918 c 0,7.149 -0.22,14.813 -0.66,23.024 -0.26,5.258 -0.69,8.379 -1.25,9.351 -0.57,0.993 -1.55,1.731 -2.95,2.219 -1.41,0.492 -7.1,0.696 -17.08,0.606 l 0,7.652 c 17.8,2.461 30.8,5.68 39,9.645 1.75,0.875 2.94,1.312 3.56,1.312 0.61,0 1.1,-0.227 1.45,-0.672 0.35,-0.441 0.53,-1.109 0.53,-2.015 0,-0.622 -0.02,-1.332 -0.09,-2.149 -0.19,-3.219 -0.39,-10.023 -0.57,-20.402 l 24.86,21.226 c 7.3,2.672 14.22,4.012 20.72,4.012 7.22,0 14.06,-1.473 20.52,-4.41 6.46,-2.93 11.32,-6.625 14.57,-11.082 3.25,-4.445 5.41,-10.063 6.47,-16.82 0.63,-4.008 0.94,-15.18 0.94,-33.528 l 0,-23.633 c 0,-11.562 0.22,-19.433 0.67,-23.632 0.44,-2.676 1.15,-4.512 2.09,-5.528 0.94,-1.035 2.4,-1.679 4.39,-1.953 l 14.46,-0.391 0,-7.656 c -8.65,0.664 -15.85,0.996 -21.59,0.996 -4.94,0 -13.14,-0.332 -24.61,-0.996 0.88,22.032 1.32,35.938 1.32,41.739 l 0,22.48 c 0,13.984 -0.53,23.164 -1.6,27.539 -1.51,5.965 -4.94,10.789 -10.27,14.441 -5.33,3.653 -11.78,5.481 -19.33,5.481 -6.67,0 -12.77,-1.602 -18.27,-4.801 -5.52,-3.219 -9.46,-6.879 -11.81,-11.023 -2.36,-4.133 -3.53,-11.11 -3.53,-20.895 l 0,-16.152 c 0.44,-23.164 0.66,-35.664 0.66,-37.539 0.18,-4.453 0.72,-7.696 1.61,-9.746 0.36,-0.801 0.9,-1.504 1.61,-2.071 0.72,-0.586 1.84,-1.054 3.36,-1.406 0.54,-0.098 5.46,-0.215 14.76,-0.391 l 0,-7.656 c -10.82,0.664 -20.62,0.996 -29.4,0.996 -7.47,0 -19.62,-0.332 -36.48,-0.996" />
            <path
               id="path3091"
               style="fill:#c4122e;fill-opacity:1;fill-rule:nonzero;stroke:none"
               d="m 1961.55,524.375 c 2.49,-0.234 7.23,-0.469 14.17,-0.676 13.29,-0.449 22.43,-0.672 27.43,-0.672 11.87,0 19.66,0.223 23.42,0.672 0.08,2.121 0.13,3.75 0.13,4.914 0,13.973 -2.86,24.242 -8.57,30.793 -5.71,6.551 -13.33,9.821 -22.87,9.821 -10.08,0 -18.2,-3.594 -24.35,-10.782 -6.14,-7.191 -9.26,-18.554 -9.36,-34.07 z m 85.75,-54.453 -4.26,-9.629 c -6.14,-3.848 -10.61,-6.406 -13.45,-7.656 -4.18,-1.875 -8.96,-3.477 -14.34,-4.766 -5.38,-1.309 -11.03,-1.953 -16.98,-1.953 -11.75,0 -22.35,2.441 -31.85,7.344 -9.52,4.883 -16.92,12.207 -22.19,21.933 -5.29,9.727 -7.93,21.133 -7.93,34.2 0,10.214 1.39,19.453 4.2,27.675 2.79,8.227 5.96,14.282 9.53,18.192 2.59,2.851 6.58,6.113 12,9.8 5.43,3.688 10.81,6.606 16.15,8.747 7.04,2.929 14.63,4.398 22.82,4.398 9.96,0 18.96,-2.269 27.02,-6.809 8.03,-4.539 13.93,-10.718 17.67,-18.543 3.73,-7.839 5.61,-16.683 5.61,-26.546 0,-2.5 -0.23,-5.528 -0.67,-9.082 -6.42,-1.25 -12.18,-2.071 -17.26,-2.422 -9.63,-0.723 -19.26,-1.075 -28.89,-1.075 l -42.93,0 c 0.18,-12.714 2.39,-23.007 6.62,-30.859 4.24,-7.871 10.08,-13.652 17.53,-17.383 7.44,-3.73 15.19,-5.605 23.22,-5.605 5.43,0 10.85,0.879 16.25,2.617 5.39,1.777 12.06,5 20,9.688 l 2.13,-2.266" />
            <path
               id="path3093"
               style="fill:#c4122e;fill-opacity:1;fill-rule:nonzero;stroke:none"
               d="m 2059.18,448.906 0,7.656 12.67,0.137 c 1.97,0.078 3.47,0.41 4.49,0.996 1.04,0.586 1.83,1.309 2.36,2.207 1,1.778 1.57,4.942 1.75,9.493 0.07,1.152 0.28,13.945 0.67,38.359 l 0,55.473 c 0,14.878 -0.22,30.25 -0.67,46.109 -0.35,10.691 -0.85,16.664 -1.48,17.91 -0.45,0.895 -1.18,1.512 -2.16,1.883 -1.35,0.621 -7.55,0.933 -18.62,0.933 l 0,7.641 c 19.94,2.531 33.79,5.695 41.57,9.488 1.14,0.536 2.02,0.817 2.64,0.817 0.62,0 1.11,-0.199 1.46,-0.602 0.35,-0.398 0.52,-0.957 0.52,-1.672 0,-0.625 -0.08,-1.511 -0.24,-2.675 l -0.12,-4.407 c -0.4,-15.937 -0.63,-29.527 -0.72,-40.742 l -0.23,-20.851 0,-69.325 c 0.36,-23.164 0.58,-35.683 0.65,-37.558 0.09,-4.453 0.63,-7.696 1.6,-9.746 0.36,-0.801 0.89,-1.485 1.6,-2.071 0.72,-0.586 1.79,-1.054 3.23,-1.406 0.62,-0.098 5.56,-0.215 14.84,-0.391 l 0,-7.656 c -12,0.664 -22.55,0.996 -31.64,0.996 -8.65,0 -20.04,-0.332 -34.17,-0.996" />
            <path
               id="path3095"
               style="fill:#c4122e;fill-opacity:1;fill-rule:nonzero;stroke:none"
               d="m 2136.09,448.906 0,7.656 12.66,0.137 c 1.98,0.078 3.48,0.41 4.51,0.996 1.03,0.586 1.82,1.309 2.37,2.207 0.97,1.778 1.56,4.942 1.74,9.493 0.07,1.152 0.28,13.945 0.67,38.359 l 0,55.473 c 0,14.878 -0.23,30.25 -0.67,46.109 -0.37,10.691 -0.86,16.664 -1.48,17.91 -0.46,0.895 -1.18,1.512 -2.16,1.883 -1.36,0.621 -7.57,0.933 -18.62,0.933 l 0,7.641 c 19.93,2.531 33.79,5.695 41.56,9.488 1.14,0.536 2.03,0.817 2.66,0.817 0.6,0 1.08,-0.199 1.44,-0.602 0.35,-0.398 0.54,-0.957 0.54,-1.672 0,-0.625 -0.09,-1.511 -0.25,-2.675 l -0.12,-4.407 c -0.4,-15.937 -0.65,-29.527 -0.72,-40.742 l -0.25,-20.851 0,-69.325 c 0.36,-23.164 0.6,-35.683 0.66,-37.558 0.09,-4.453 0.63,-7.696 1.61,-9.746 0.36,-0.801 0.89,-1.485 1.61,-2.071 0.71,-0.586 1.78,-1.054 3.21,-1.406 0.63,-0.098 5.58,-0.215 14.85,-0.391 l 0,-7.656 c -12.01,0.664 -22.56,0.996 -31.66,0.996 -8.64,0 -20.03,-0.332 -34.16,-0.996" />
            <path
               id="path3097"
               style="fill:#c4122e;fill-opacity:1;fill-rule:nonzero;stroke:none"
               d="m 2260.66,630.062 0,8.633 c 14.57,-0.652 28.11,-0.992 40.62,-0.992 12.69,0 25.3,0.34 37.82,0.992 l 0,-8.633 c -10.47,-0.175 -16.84,-0.644 -19.15,-1.402 -2.3,-0.758 -3.86,-1.805 -4.65,-3.129 -1.15,-1.781 -1.85,-6.093 -2.13,-12.929 -0.1,-1.782 -0.33,-14.391 -0.66,-37.848 l 0,-49.305 c 0,-19.101 1.22,-31.699 3.66,-37.793 2.44,-6.074 6.33,-11.133 11.66,-15.117 4.09,-3.027 9.59,-5.449 16.53,-7.266 6.92,-1.835 14.66,-2.734 23.19,-2.734 9.95,0 18.79,1.211 26.52,3.672 7.73,2.441 13.52,5.41 17.39,8.926 3.86,3.515 6.74,7.441 8.66,11.797 1.9,4.336 3.29,10.332 4.14,17.929 0.83,7.578 1.27,17.196 1.27,28.836 l 0,41.055 c 0,12.086 -0.24,23.891 -0.68,35.441 -0.17,8.442 -0.78,13.442 -1.79,15.004 -1.02,1.547 -2.68,2.703 -4.98,3.461 -2.32,0.758 -8.7,1.227 -19.15,1.402 l 0,8.633 c 14.62,-0.652 25.3,-0.992 32.04,-0.992 6.11,0 17.16,0.34 33.1,0.992 l 0,-8.633 c -10.54,-0.175 -16.95,-0.644 -19.2,-1.402 -2.27,-0.758 -3.84,-1.805 -4.72,-3.14 -1.07,-1.77 -1.74,-6.082 -2,-12.934 0,-1.781 -0.14,-14.398 -0.4,-37.863 l 0,-44.664 c 0,-21.954 -1.54,-37.286 -4.61,-45.997 -3.07,-8.73 -8.7,-16.406 -16.89,-23.066 -6.14,-4.98 -14.05,-8.848 -23.7,-11.601 -9.66,-2.754 -20.37,-4.141 -32.12,-4.141 -13.71,0 -25.61,1.621 -35.65,4.863 -10.06,3.242 -17.73,7.52 -22.97,12.813 -5.26,5.273 -8.86,10.664 -10.82,16.191 -2.49,7.285 -3.74,19.512 -3.74,36.668 l 0,58.934 c 0,12.093 -0.23,23.91 -0.67,35.472 -0.26,8.442 -0.91,13.442 -1.91,15.004 -1.02,1.547 -2.66,2.703 -4.89,3.461 -2.25,0.758 -8.64,1.227 -19.12,1.402" />
            <path
               id="path3099"
               style="fill:#c4122e;fill-opacity:1;fill-rule:nonzero;stroke:none"
               d="m 2462.6,448.906 0,7.656 12.71,0.137 c 1.87,0.078 3.31,0.41 4.36,0.996 1.02,0.586 1.79,1.309 2.33,2.207 0.98,1.778 1.6,4.961 1.88,9.493 0,1.171 0.21,13.984 0.66,38.417 l 0,15.918 c 0,7.149 -0.22,14.813 -0.66,23.024 -0.28,5.258 -0.69,8.379 -1.25,9.351 -0.57,0.993 -1.57,1.731 -2.95,2.219 -1.41,0.492 -7.1,0.696 -17.08,0.606 l 0,7.652 c 17.8,2.461 30.8,5.68 38.99,9.645 1.76,0.875 2.95,1.312 3.57,1.312 0.61,0 1.1,-0.227 1.46,-0.672 0.34,-0.441 0.52,-1.109 0.52,-2.015 0,-0.622 -0.03,-1.332 -0.09,-2.149 -0.18,-3.219 -0.39,-10.023 -0.57,-20.402 l 24.87,21.226 c 7.29,2.672 14.21,4.012 20.71,4.012 7.22,0 14.05,-1.473 20.52,-4.41 6.45,-2.93 11.31,-6.625 14.56,-11.082 3.24,-4.445 5.42,-10.063 6.48,-16.82 0.63,-4.008 0.94,-15.18 0.94,-33.528 l 0,-23.633 c 0,-11.562 0.22,-19.433 0.66,-23.632 0.45,-2.676 1.16,-4.512 2.1,-5.528 0.94,-1.035 2.41,-1.679 4.39,-1.953 l 14.46,-0.391 0,-7.656 c -8.66,0.664 -15.85,0.996 -21.59,0.996 -4.94,0 -13.13,-0.332 -24.61,-0.996 0.88,22.032 1.33,35.938 1.33,41.739 l 0,22.48 c 0,13.984 -0.54,23.164 -1.61,27.539 -1.52,5.965 -4.93,10.789 -10.27,14.441 -5.34,3.653 -11.78,5.481 -19.33,5.481 -6.67,0 -12.77,-1.602 -18.28,-4.801 -5.51,-3.219 -9.45,-6.879 -11.8,-11.023 -2.35,-4.133 -3.53,-11.11 -3.53,-20.895 l 0,-16.152 c 0.43,-23.164 0.66,-35.664 0.66,-37.539 0.17,-4.453 0.72,-7.696 1.62,-9.746 0.35,-0.801 0.89,-1.504 1.6,-2.071 0.72,-0.586 1.84,-1.054 3.36,-1.406 0.54,-0.098 5.46,-0.215 14.76,-0.391 l 0,-7.656 c -10.81,0.664 -20.63,0.996 -29.41,0.996 -7.46,0 -19.61,-0.332 -36.47,-0.996" />
            <path
               id="path3101"
               style="fill:#c4122e;fill-opacity:1;fill-rule:nonzero;stroke:none"
               d="m 2658.95,637.035 c 4.17,0 7.68,-1.461 10.57,-4.387 2.87,-2.925 4.32,-6.472 4.32,-10.636 0,-4.078 -1.47,-7.574 -4.39,-10.504 -2.93,-2.93 -6.43,-4.391 -10.5,-4.391 -4.16,0 -7.72,1.461 -10.64,4.391 -2.93,2.93 -4.38,6.426 -4.38,10.504 0,4.164 1.45,7.711 4.38,10.636 2.92,2.926 6.48,4.387 10.64,4.387 z m -32.31,-78.441 0,7.648 c 17.04,1.977 31.38,5.738 42.97,11.297 l 2.89,-2.129 c -0.44,-18.945 -0.65,-33.441 -0.65,-43.496 l 0,-24.258 c 0.43,-23.125 0.7,-35.625 0.8,-37.5 0.07,-4.433 0.56,-7.676 1.46,-9.726 0.43,-0.801 1.01,-1.504 1.72,-2.071 0.7,-0.586 1.78,-1.054 3.18,-1.406 0.54,-0.098 5.46,-0.215 14.77,-0.391 l 0,-7.656 c -13.47,0.664 -24.24,0.996 -32.31,0.996 -7.09,0 -18.71,-0.332 -34.83,-0.996 l 0,7.656 12.71,0.137 c 1.87,0.078 3.32,0.41 4.34,0.996 1.04,0.567 1.82,1.309 2.35,2.188 0.98,1.777 1.61,4.922 1.87,9.472 0,1.133 0.23,13.887 0.67,38.223 l 0,23.438 c 0,13.23 -0.44,21.097 -1.33,23.578 -0.54,1.34 -1.49,2.34 -2.87,3 -1.37,0.668 -7.28,1 -17.74,1" />
            <path
               id="path3103"
               style="fill:#c4122e;fill-opacity:1;fill-rule:nonzero;stroke:none"
               d="m 2754.77,447.578 c -3.49,9.121 -5.89,15.234 -7.23,18.379 l -10.95,25.605 -27.4,63.946 c -1.79,4.023 -3.29,6.703 -4.54,8.051 -1.25,1.336 -2.63,2.183 -4.14,2.539 -1.25,0.355 -4.55,0.625 -9.89,0.804 l 0,7.653 c 14.77,-0.668 25.54,-1.004 32.33,-1.004 7.47,0 17.7,0.336 30.71,1.004 l 0,-7.653 c -9.62,-0.265 -15.26,-0.89 -16.96,-1.871 -1.69,-0.996 -2.54,-2.328 -2.54,-4.031 0,-2.688 1.79,-8.457 5.35,-17.309 l 16.34,-40.781 3.89,-9.121 c 4.37,-10.625 7.36,-17.734 8.97,-21.309 l 13.37,30.43 c 0.8,1.797 4.85,11.844 12.16,30.176 4.28,10.648 7.13,18.793 8.55,24.43 0.35,1.511 0.54,2.859 0.54,4.015 0,1.528 -0.59,2.598 -1.74,3.235 -2.14,1.156 -7.84,1.871 -17.1,2.136 l 0,7.653 c 13.26,-0.668 21.78,-1.004 25.52,-1.004 3.11,0 11.63,0.336 25.52,1.004 l 0,-7.653 c -5.53,-0.265 -9.19,-0.914 -11.03,-1.937 -1.82,-1.027 -3.63,-3.156 -5.4,-6.371 -1.25,-2.149 -6.06,-11.809 -14.43,-28.965 l -12.83,-27.481 c -2.23,-4.921 -9.95,-23.105 -23.12,-54.57 l -13.95,0" />
            <path
               id="path3105"
               style="fill:#c4122e;fill-opacity:1;fill-rule:nonzero;stroke:none"
               d="m 2859.8,524.375 c 2.5,-0.234 7.22,-0.469 14.18,-0.676 13.29,-0.449 22.44,-0.672 27.43,-0.672 11.86,0 19.65,0.223 23.4,0.672 0.1,2.121 0.14,3.75 0.14,4.914 0,13.973 -2.86,24.242 -8.56,30.793 -5.72,6.551 -13.33,9.821 -22.88,9.821 -10.08,0 -18.19,-3.594 -24.35,-10.782 -6.14,-7.191 -9.27,-18.554 -9.36,-34.07 z m 85.76,-54.453 -4.27,-9.629 c -6.12,-3.848 -10.62,-6.406 -13.46,-7.656 -4.17,-1.875 -8.95,-3.477 -14.32,-4.766 -5.37,-1.309 -11.05,-1.953 -17,-1.953 -11.72,0 -22.35,2.441 -31.85,7.344 -9.51,4.883 -16.91,12.207 -22.18,21.933 -5.29,9.727 -7.93,21.133 -7.93,34.2 0,10.214 1.39,19.453 4.2,27.675 2.79,8.227 5.98,14.282 9.53,18.192 2.58,2.851 6.58,6.113 12.01,9.8 5.42,3.688 10.8,6.606 16.15,8.747 7.03,2.929 14.62,4.398 22.81,4.398 9.97,0 18.96,-2.269 27.02,-6.809 8.05,-4.539 13.93,-10.718 17.68,-18.543 3.73,-7.839 5.59,-16.683 5.59,-26.546 0,-2.5 -0.21,-5.528 -0.65,-9.082 -6.43,-1.25 -12.18,-2.071 -17.26,-2.422 -9.63,-0.723 -19.27,-1.075 -28.89,-1.075 l -42.94,0 c 0.18,-12.714 2.39,-23.007 6.63,-30.859 4.23,-7.871 10.07,-13.652 17.53,-17.383 7.45,-3.73 15.17,-5.605 23.21,-5.605 5.43,0 10.85,0.879 16.25,2.617 5.39,1.777 12.06,5 20,9.688 l 2.14,-2.266" />
            <path
               id="path3107"
               style="fill:#c4122e;fill-opacity:1;fill-rule:nonzero;stroke:none"
               d="m 2962.26,448.906 0,7.656 c 10.11,0.176 15.58,0.352 16.4,0.528 1.53,0.254 2.67,0.683 3.43,1.269 0.75,0.586 1.37,1.407 1.82,2.481 0.89,2.051 1.43,5.273 1.61,9.629 0.44,23.828 0.67,36.269 0.67,37.343 l 0,15.918 c 0,7.149 -0.23,14.813 -0.67,23.024 -0.18,5.258 -0.56,8.379 -1.12,9.351 -0.57,0.993 -1.58,1.731 -3.02,2.219 -1.45,0.492 -7.15,0.696 -17.13,0.606 l 0,7.652 c 17.79,2.461 30.78,5.68 38.98,9.645 1.76,0.875 2.95,1.312 3.58,1.312 0.6,0 1.1,-0.227 1.44,-0.672 0.35,-0.441 0.54,-1.109 0.54,-2.015 0,-0.622 -0.04,-1.332 -0.11,-2.137 -0.31,-5.453 -0.5,-13.91 -0.56,-25.348 4.02,4.617 7.72,9.207 11.11,13.754 3.4,4.531 5.86,7.473 7.39,8.809 2.67,2.32 5.75,4.156 9.24,5.539 3.48,1.383 7.1,2.07 10.85,2.07 3.75,0 7.46,-0.801 11.12,-2.406 l 0.81,-1.863 c -1.37,-11.848 -2.14,-22.258 -2.33,-31.258 l -6.01,0 c -2.06,4.261 -4.44,7.383 -7.16,9.332 -2.72,1.945 -6.14,2.926 -10.24,2.926 -6.88,0 -12.73,-2.825 -17.56,-8.473 -4.81,-5.649 -7.22,-14.117 -7.22,-25.426 l 0,-13.75 c 0,-5.879 0.22,-16.601 0.67,-32.168 0.09,-5.527 0.31,-9.043 0.66,-10.547 0.36,-1.523 0.82,-2.617 1.41,-3.281 0.58,-0.664 1.52,-1.23 2.87,-1.66 2.67,-0.82 9.88,-1.621 21.64,-2.403 l 0,-7.656 c -15.65,0.664 -29,0.996 -40.03,0.996 -11.39,0 -22.42,-0.332 -33.08,-0.996" />
            <path
               id="path3109"
               style="fill:#c4122e;fill-opacity:1;fill-rule:nonzero;stroke:none"
               d="m 3074.98,489.121 7.64,0 c 0.09,-5.156 0.37,-9.258 0.81,-12.285 0.45,-3.008 1.21,-5.977 2.28,-8.867 1.08,-2.891 2.74,-5.332 4.97,-7.324 2.24,-2.012 4.68,-3.555 7.32,-4.668 2.64,-1.114 5.32,-1.856 8.05,-2.207 2.73,-0.352 6.87,-0.547 12.44,-0.547 9.13,0 16.61,2.422 22.48,7.207 5.86,4.804 8.8,11.386 8.8,19.746 0,3.73 -0.91,7.031 -2.74,9.863 -1.82,2.852 -4.46,5.078 -7.88,6.68 -3.43,1.601 -10.8,3.691 -22.11,6.269 -11.3,2.559 -18.59,4.434 -21.89,5.606 -4.98,1.855 -8.95,4.121 -11.89,6.785 -2.94,2.668 -5.27,6.047 -7.01,10.148 -1.73,4.082 -2.6,8.535 -2.6,13.328 0,7.028 1.84,13.5 5.54,19.415 3.69,5.906 9.51,10.703 17.44,14.402 7.92,3.683 16.56,5.535 25.91,5.535 5.6,0 12.1,-0.758 19.5,-2.297 7.38,-1.519 13.4,-3.418 18.03,-5.676 -0.63,-9.902 -1.07,-19.98 -1.34,-30.25 l -7.64,0 c -0.45,6.454 -0.95,10.704 -1.53,12.739 -0.59,2.027 -1.37,3.843 -2.33,5.433 -0.99,1.582 -2.69,3.289 -5.08,5.114 -2.39,1.808 -5.49,3.418 -9.27,4.835 -3.79,1.415 -8.43,2.129 -13.94,2.129 -7.82,0 -14.13,-2.32 -18.88,-6.929 -4.76,-4.625 -7.13,-10.047 -7.13,-16.258 0,-3.469 0.68,-6.442 2.06,-8.922 1.39,-2.5 3.23,-4.512 5.55,-6.055 2.31,-1.562 5.55,-2.968 9.74,-4.199 l 22.17,-5.469 c 11.21,-2.851 18.95,-5.285 23.17,-7.336 4.22,-2.039 7.63,-5.203 10.21,-9.519 2.58,-4.317 3.88,-9.492 3.88,-15.527 0,-11.993 -4.98,-22.442 -14.91,-31.368 -9.96,-8.925 -23.27,-13.398 -39.94,-13.398 -7.67,0 -17.89,1.152 -30.64,3.457 -7.04,1.328 -10.83,2.266 -11.37,2.793 -0.36,0.273 -0.54,0.723 -0.54,1.328 0,0.625 0.1,1.387 0.29,2.285 0.84,3.809 1.39,7.539 1.68,11.192 0.27,3.652 0.51,11.25 0.7,22.812" />
            <path
               id="path3111"
               style="fill:#c4122e;fill-opacity:1;fill-rule:nonzero;stroke:none"
               d="m 3216.97,637.035 c 4.17,0 7.7,-1.461 10.57,-4.387 2.89,-2.925 4.33,-6.472 4.33,-10.636 0,-4.078 -1.47,-7.574 -4.39,-10.504 -2.93,-2.93 -6.44,-4.391 -10.51,-4.391 -4.15,0 -7.7,1.461 -10.63,4.391 -2.92,2.93 -4.4,6.426 -4.4,10.504 0,4.164 1.48,7.711 4.4,10.636 2.93,2.926 6.48,4.387 10.63,4.387 z m -32.29,-78.441 0,7.648 c 17.04,1.977 31.36,5.738 42.97,11.297 l 2.89,-2.129 c -0.44,-18.945 -0.67,-33.441 -0.67,-43.496 l 0,-24.258 c 0.44,-23.125 0.72,-35.625 0.8,-37.5 0.08,-4.433 0.57,-7.676 1.46,-9.726 0.45,-0.801 1.02,-1.504 1.73,-2.071 0.71,-0.586 1.76,-1.054 3.19,-1.406 0.53,-0.098 5.45,-0.215 14.77,-0.391 l 0,-7.656 c -13.49,0.664 -24.25,0.996 -32.32,0.996 -7.1,0 -18.7,-0.332 -34.82,-0.996 l 0,7.656 12.7,0.137 c 1.87,0.078 3.32,0.41 4.35,0.996 1.02,0.567 1.8,1.309 2.33,2.188 0.99,1.777 1.6,4.922 1.89,9.472 0,1.133 0.21,13.887 0.65,38.223 l 0,23.438 c 0,13.23 -0.44,21.097 -1.32,23.578 -0.53,1.34 -1.49,2.34 -2.87,3 -1.37,0.668 -7.28,1 -17.73,1" />
            <path
               id="path3113"
               style="fill:#c4122e;fill-opacity:1;fill-rule:nonzero;stroke:none"
               d="m 3257.8,553.281 0,5.602 c 8.5,3.484 15.27,6.605 20.29,9.351 0,21.18 0,34.707 0,40.578 9.3,3.2 16.87,6.626 22.69,10.286 l 3.23,-2.676 c -1.02,-7.445 -2.13,-23.836 -3.33,-49.188 7.05,-0.086 11.28,-0.132 12.7,-0.132 0.79,0 5.34,0.113 13.62,0.332 4.59,0.136 8.02,0.402 10.31,0.8 l 0.93,-0.929 -2.77,-12.364 c -5.56,0.086 -10.67,0.129 -15.35,0.129 -4.67,0 -11.15,-0.043 -19.44,-0.129 l -0.66,-54.511 c -0.27,-13.301 -0.19,-21.25 0.26,-23.828 0.43,-2.579 1.27,-4.844 2.51,-6.758 1.23,-1.934 2.83,-3.477 4.82,-4.629 1.97,-1.172 5.34,-2.051 10.11,-2.676 3.59,0 6.52,0.156 8.77,0.469 2.24,0.312 5.08,1.094 8.51,2.344 l 1.58,-5.079 c -4.15,-3.3 -8.17,-6.718 -12.06,-10.293 -3.36,-1.23 -6.49,-2.07 -9.41,-2.46 -2.92,-0.411 -6.27,-0.606 -10.07,-0.606 -4.68,0 -8.42,0.527 -11.2,1.602 -2.78,1.074 -5.31,2.558 -7.62,4.472 -2.29,1.934 -4.23,4.356 -5.77,7.285 -1.56,2.95 -2.58,7.598 -3.03,13.926 0.09,6.055 0.27,12.696 0.53,19.903 0.09,1.425 0.14,3.007 0.14,4.687 l 0,55.481 -5.44,0 c -4.42,0 -9.37,-0.321 -14.85,-0.989" />
            <path
               id="path3115"
               style="fill:#c4122e;fill-opacity:1;fill-rule:nonzero;stroke:none"
               d="m 3351.99,377.793 6.82,20.586 3.21,0 c 1.69,-1.406 3.14,-2.539 4.35,-3.379 1.2,-0.84 2.49,-1.484 3.87,-1.934 1.38,-0.429 3.41,-0.664 6.07,-0.664 2.76,0 5.46,0.586 8.08,1.778 2.63,1.172 5.07,3.047 7.36,5.586 2.25,2.539 4.95,6.894 8.07,13.105 4.7,9.59 8.92,19.356 12.65,29.317 -2.85,8.027 -6.26,17.031 -10.24,27.011 l -21.18,52.696 c -6.28,15.683 -11.44,27.628 -15.44,35.839 -1.61,3.231 -3.32,5.391 -5.15,6.485 -1.83,1.09 -5.9,1.98 -12.23,2.683 l 0,7.653 c 11.03,-0.668 21.92,-1.004 32.67,-1.004 10.49,0 20.58,0.336 30.27,1.004 l 0,-7.653 c -9.17,-0.597 -14.42,-1.172 -15.76,-1.691 -2.31,-0.859 -3.48,-2.43 -3.48,-4.68 0,-1.39 0.77,-4.254 2.28,-8.59 3.47,-10.957 6.75,-20.3 9.86,-28.054 l 8.4,-20.84 c 5.07,-12.461 9.34,-22.578 12.8,-30.313 l 7.1,15.762 c 2.77,6.231 7.64,18.066 14.59,35.527 6.97,17.45 11.04,28.231 12.19,32.375 0.36,1.438 0.54,2.7 0.54,3.778 0,1.703 -0.7,3.015 -2.07,3.965 -1.39,0.945 -6.75,1.871 -16.1,2.761 l 0,7.653 c 10.32,-0.668 19.45,-1.004 27.38,-1.004 8,0 15.92,0.336 23.77,1.004 l -1.34,-7.653 c -4.54,-0.179 -8.07,-1.172 -10.55,-2.953 -2.49,-1.793 -6.26,-7.808 -11.29,-18.051 -5.03,-10.253 -14.36,-30.363 -28,-60.332 l -30.87,-72.285 c -4.98,-11.543 -9.29,-19.785 -12.93,-24.726 -3.66,-4.942 -8.02,-8.692 -13.09,-11.25 -5.08,-2.559 -10.64,-3.848 -16.7,-3.848 -2.94,0 -5.59,0.332 -7.95,0.977 -2.36,0.664 -5.02,1.777 -7.96,3.359" />
          </g>
        </g>
      </g>
    </g>
  </g>
</svg>
